<svg width="32" height="32" viewBox="0 0 32 32" fill="none" xmlns="http://www.w3.org/2000/svg">
<path fill-rule="evenodd" clip-rule="evenodd" d="M27.6809 1.63439C26.5093 0.462813 24.6098 0.462814 23.4383 1.63439L15.9999 9.07272L8.56158 1.63439C7.39001 0.462813 5.49051 0.462815 4.31894 1.63439L1.63429 4.31904C0.462721 5.49061 0.462723 7.3901 1.6343 8.56168L9.07263 16L1.63429 23.4384C0.462721 24.6099 0.462723 26.5094 1.6343 27.681L4.31894 30.3656C5.49052 31.5372 7.39001 31.5372 8.56159 30.3656L15.9999 22.9273L23.4383 30.3656C24.6098 31.5372 26.5093 31.5372 27.6809 30.3656L30.3656 27.681C31.5371 26.5094 31.5371 24.6099 30.3656 23.4384L22.9272 16L30.3656 8.56168C31.5371 7.3901 31.5371 5.49061 30.3656 4.31903L27.6809 1.63439Z" fill="#31C3BD"/>
</svg>
